# xmcd CD database file
#
# Track frame offsets:
#	150
#	12060
#	24372
#	38940
#	51687
#	60775
#	71602
#	83052
#	96132
#	103975
#	118127
#	130282
#	138267
#	150412
#	161307
#	175287
#	187777
#	198465
#	211727
#	222520
#	234225
#	248362
#	257517
#
# Disc length: 3613 seconds
#
# Revision: 0
# Processed by: cddbd v1.5.1PL0 Copyright (c) Steve Scherf et al.
# Submitted via: CDex 1.51
#
DISCID=2d0e1b17
DTITLE=ray charles - the sensational ray charles
DYEAR=1900
DGENRE=Blues
TTITLE0=if i give you my love
TTITLE1=can't you see darling
TTITLE2=blues is my middle name
TTITLE3=going down slow
TTITLE4=going away blues
TTITLE5=i'm sitting on top of the world
TTITLE6=here am i
TTITLE7=i'm just a lonely boy
TTITLE8=ray's blues
TTITLE9=late in the evening blues
TTITLE10=st. pete blues
TTITLE11=easy riding gal
TTITLE12=c.c. rider
TTITLE13=i wonder who's kissing her now
TTITLE14=i'm going down to the river
TTITLE15=i'm glad for your sake
TTITLE16=the ego song
TTITLE17=i used to be so happy
TTITLE18=hey, now
TTITLE19=what have i done
TTITLE20=all night long
TTITLE21=all to myself alone
TTITLE22=oh, baby
EXTD=
EXTT0=
EXTT1=
EXTT2=
EXTT3=
EXTT4=
EXTT5=
EXTT6=
EXTT7=
EXTT8=
EXTT9=
EXTT10=
EXTT11=
EXTT12=
EXTT13=
EXTT14=
EXTT15=
EXTT16=
EXTT17=
EXTT18=
EXTT19=
EXTT20=
EXTT21=
EXTT22=
PLAYORDER=
